<?xml version="1.0" encoding="UTF-8"?>
<!-- Do not edit this file with editors other than draw.io -->
<!DOCTYPE svg PUBLIC "-//W3C//DTD SVG 1.1//EN" "http://www.w3.org/Graphics/SVG/1.1/DTD/svg11.dtd">
<svg xmlns="http://www.w3.org/2000/svg" xmlns:xlink="http://www.w3.org/1999/xlink" version="1.1" width="358px" height="85px" viewBox="-0.5 -0.5 358 85" content="&lt;mxfile host=&quot;app.diagrams.net&quot; modified=&quot;2024-06-07T06:41:35.029Z&quot; agent=&quot;Mozilla/5.0 (Windows NT 10.0; Win64; x64) AppleWebKit/537.36 (KHTML, like Gecko) Chrome/125.0.0.0 Safari/537.36&quot; etag=&quot;VS1Qm1Nz2s1G00sOGayX&quot; version=&quot;24.5.1&quot; type=&quot;github&quot;&gt;&#10;  &lt;diagram name=&quot;Page-1&quot; id=&quot;BIi2ddOulYQcRLobcvTE&quot;&gt;&#10;    &lt;mxGraphModel dx=&quot;1050&quot; dy=&quot;557&quot; grid=&quot;1&quot; gridSize=&quot;10&quot; guides=&quot;1&quot; tooltips=&quot;1&quot; connect=&quot;1&quot; arrows=&quot;1&quot; fold=&quot;1&quot; page=&quot;1&quot; pageScale=&quot;1&quot; pageWidth=&quot;850&quot; pageHeight=&quot;1100&quot; math=&quot;0&quot; shadow=&quot;0&quot;&gt;&#10;      &lt;root&gt;&#10;        &lt;mxCell id=&quot;0&quot; /&gt;&#10;        &lt;mxCell id=&quot;1&quot; parent=&quot;0&quot; /&gt;&#10;        &lt;mxCell id=&quot;Un_qKHMLWaz9beWi3cXV-1&quot; value=&quot;&quot; style=&quot;sketch=0;outlineConnect=0;fontColor=#232F3E;gradientColor=none;fillColor=#232F3D;strokeColor=none;dashed=0;verticalLabelPosition=bottom;verticalAlign=top;align=center;html=1;fontSize=12;fontStyle=0;aspect=fixed;pointerEvents=1;shape=mxgraph.aws4.management_console2;&quot; vertex=&quot;1&quot; parent=&quot;1&quot;&gt;&#10;          &lt;mxGeometry x=&quot;390&quot; y=&quot;260&quot; width=&quot;78&quot; height=&quot;69&quot; as=&quot;geometry&quot; /&gt;&#10;        &lt;/mxCell&gt;&#10;        &lt;mxCell id=&quot;Un_qKHMLWaz9beWi3cXV-2&quot; value=&quot;&quot; style=&quot;sketch=0;outlineConnect=0;fontColor=#232F3E;gradientColor=none;fillColor=#232F3D;strokeColor=none;dashed=0;verticalLabelPosition=bottom;verticalAlign=top;align=center;html=1;fontSize=12;fontStyle=0;aspect=fixed;pointerEvents=1;shape=mxgraph.aws4.client;&quot; vertex=&quot;1&quot; parent=&quot;1&quot;&gt;&#10;          &lt;mxGeometry x=&quot;530&quot; y=&quot;260&quot; width=&quot;78&quot; height=&quot;76&quot; as=&quot;geometry&quot; /&gt;&#10;        &lt;/mxCell&gt;&#10;        &lt;mxCell id=&quot;Un_qKHMLWaz9beWi3cXV-3&quot; value=&quot;&quot; style=&quot;sketch=0;outlineConnect=0;fontColor=#232F3E;gradientColor=none;fillColor=#232F3D;strokeColor=none;dashed=0;verticalLabelPosition=bottom;verticalAlign=top;align=center;html=1;fontSize=12;fontStyle=0;aspect=fixed;pointerEvents=1;shape=mxgraph.aws4.cold_storage;&quot; vertex=&quot;1&quot; parent=&quot;1&quot;&gt;&#10;          &lt;mxGeometry x=&quot;250&quot; y=&quot;251&quot; width=&quot;71&quot; height=&quot;78&quot; as=&quot;geometry&quot; /&gt;&#10;        &lt;/mxCell&gt;&#10;      &lt;/root&gt;&#10;    &lt;/mxGraphModel&gt;&#10;  &lt;/diagram&gt;&#10;&lt;/mxfile&gt;&#10;" resource="https://app.diagrams.net/#Hkazuzuz%2Fbook-managament%2Fmain%2FUntitled%20Diagram.drawio.svg#%7B%22pageId%22%3A%22BIi2ddOulYQcRLobcvTE%22%7D"><defs/><g><g><rect x="140" y="9" width="78" height="69" fill="none" stroke="none" pointer-events="all"/><path d="M 154.23 74.46 L 214.38 74.46 L 214.38 26.69 L 154.23 26.69 Z M 143.62 74.46 L 150.69 74.46 L 150.69 26.69 L 143.62 26.69 Z M 143.62 23.15 L 214.38 23.15 L 214.38 12.54 L 143.62 12.54 Z M 217.92 10.77 L 217.92 76.23 C 217.92 77.21 217.13 78 216.15 78 L 141.85 78 C 140.87 78 140.08 77.21 140.08 76.23 L 140.08 10.77 C 140.08 9.79 140.87 9 141.85 9 L 216.15 9 C 217.13 9 217.92 9.79 217.92 10.77 Z M 198.46 59.26 L 198.46 44.15 L 186.08 52.4 L 186.08 66.14 Z M 170.15 59.26 L 182.54 66.14 L 182.54 52.4 L 170.15 44.15 Z M 171.78 40.98 L 184.31 49.33 L 196.84 40.98 L 184.31 34.02 Z M 202 40.84 L 202 60.3 C 202 60.95 201.65 61.54 201.09 61.85 L 185.17 70.7 C 184.9 70.85 184.6 70.92 184.31 70.92 C 184.01 70.92 183.71 70.85 183.45 70.7 L 167.53 61.85 C 166.96 61.54 166.62 60.95 166.62 60.3 L 166.62 40.84 C 166.62 40.2 166.96 39.61 167.53 39.3 L 183.45 30.45 C 183.98 30.15 184.63 30.15 185.17 30.45 L 201.09 39.3 C 201.65 39.61 202 40.2 202 40.84 Z M 161.31 19.62 L 164.85 19.62 L 164.85 16.08 L 161.31 16.08 Z M 154.23 19.62 L 157.77 19.62 L 157.77 16.08 L 154.23 16.08 Z M 147.16 19.62 L 150.69 19.62 L 150.69 16.08 L 147.16 16.08 Z" fill="#232f3d" stroke="none" pointer-events="all"/></g><g><rect x="280" y="9" width="78" height="76" fill="none" stroke="none" pointer-events="all"/><path d="M 353 9 L 285.01 9 C 282.43 9 280.34 11.09 280.34 13.67 L 280.34 58.56 C 280.34 61.13 282.43 63.22 285.01 63.22 L 353 63.22 C 355.57 63.22 357.66 61.13 357.66 58.56 L 357.66 13.67 C 357.66 11.09 355.57 9 353 9 Z M 354.13 58.56 C 354.13 59.18 353.62 59.69 353 59.69 L 285.01 59.69 C 284.38 59.69 283.87 59.18 283.87 58.56 L 283.87 13.67 C 283.87 13.04 284.38 12.53 285.01 12.53 L 353 12.53 C 353.62 12.53 354.13 13.04 354.13 13.67 Z M 348.92 15.18 L 289.03 15.18 C 287.64 15.18 286.52 16.31 286.52 17.69 L 286.52 54.53 C 286.52 55.92 287.64 57.04 289.03 57.04 L 348.92 57.04 C 350.3 57.04 351.43 55.92 351.43 54.53 L 351.43 17.69 C 351.43 16.31 350.3 15.18 348.92 15.18 Z M 290.05 53.51 L 290.05 18.71 L 347.9 18.71 L 347.9 53.51 Z M 353 66.15 L 285.01 66.15 C 282.43 66.15 280.34 68.24 280.34 70.82 L 280.34 80.33 C 280.34 82.9 282.43 85 285.01 85 L 353 85 C 355.57 85 357.66 82.9 357.66 80.33 L 357.66 70.82 C 357.66 68.24 355.57 66.15 353 66.15 Z M 354.13 80.33 C 354.13 80.96 353.62 81.47 353 81.47 L 285.01 81.47 C 284.38 81.47 283.87 80.96 283.87 80.33 L 283.87 70.82 C 283.87 70.19 284.38 69.68 285.01 69.68 L 353 69.68 C 353.62 69.68 354.13 70.19 354.13 70.82 Z M 351.49 73.93 L 351.49 77.32 C 351.49 78.1 350.86 78.72 350.09 78.72 L 331.12 78.72 C 330.34 78.72 329.72 78.1 329.72 77.32 L 329.72 73.93 C 329.72 73.15 330.34 72.53 331.12 72.53 L 350.09 72.53 C 350.86 72.53 351.49 73.15 351.49 73.93 Z" fill="#232f3d" stroke="none" pointer-events="all"/></g><g><rect x="0" y="0" width="71" height="78" fill="none" stroke="none" pointer-events="all"/><path d="M 67.45 63.85 C 67.45 60.67 65.75 57.71 63.01 56.13 C 62.46 55.81 62.13 55.23 62.13 54.59 L 62.13 10.6 C 62.13 8.64 60.53 7.05 58.58 7.05 C 56.62 7.05 55.03 8.64 55.03 10.6 L 55.03 54.63 C 55.03 55.26 54.69 55.84 54.14 56.16 C 51.4 57.75 49.7 60.69 49.7 63.85 C 49.7 68.74 53.68 72.73 58.58 72.73 C 63.47 72.73 67.45 68.74 67.45 63.85 M 71 63.85 C 71 70.7 65.42 76.27 58.58 76.27 C 51.73 76.27 46.15 70.7 46.15 63.85 C 46.15 59.78 48.17 55.96 51.47 53.65 L 51.47 10.6 C 51.47 6.68 54.66 3.5 58.58 3.5 C 62.49 3.5 65.67 6.68 65.67 10.6 L 65.67 53.62 C 68.98 55.93 71 59.76 71 63.85 M 62.13 63.85 C 62.13 61.89 60.53 60.3 58.58 60.3 C 56.62 60.3 55.03 61.89 55.03 63.85 C 55.03 65.81 56.62 67.4 58.58 67.4 C 60.53 67.4 62.13 65.81 62.13 63.85 M 65.67 63.85 C 65.67 67.77 62.49 70.95 58.58 70.95 C 54.66 70.95 51.47 67.77 51.47 63.85 C 51.47 60.55 53.75 57.8 56.8 57 L 56.8 42.55 L 60.35 42.55 L 60.35 57 C 63.4 57.8 65.67 60.55 65.67 63.85 M 43.92 71.16 L 45.45 74.36 C 40.63 76.67 33.2 78 25.09 78 C 10.08 78 0 73.64 0 67.16 L 0 10.6 L 0.04 10.6 C 0.43 4.25 10.63 0 25.69 0 C 34.16 0 41.86 1.41 46.83 3.85 L 45.26 7.04 C 40.83 4.86 33.52 3.55 25.69 3.55 C 12.02 3.55 3.55 7.41 3.55 10.98 C 3.55 14.55 12.02 18.4 25.69 18.4 C 33.59 18.4 40.94 17.08 45.37 14.87 L 46.95 18.05 C 41.99 20.53 34.24 21.95 25.69 21.95 C 15.67 21.95 7.82 20.07 3.55 16.95 L 3.55 30.69 C 3.55 34.27 12.02 38.12 25.69 38.12 C 33.56 38.12 40.89 36.82 45.3 34.64 L 46.87 37.82 C 41.92 40.27 34.2 41.67 25.69 41.67 C 15.67 41.67 7.82 39.79 3.55 36.66 L 3.55 49.15 C 3.55 52.77 11.83 56.52 25.69 56.52 C 32.55 56.52 39.06 55.54 43.53 53.84 L 44.8 57.15 C 39.86 59.04 33.08 60.07 25.69 60.07 C 15.67 60.07 7.82 58.2 3.55 55.09 L 3.55 67.16 C 3.55 70.74 11.61 74.45 25.09 74.45 C 32.69 74.45 39.55 73.25 43.92 71.16" fill="#232f3d" stroke="none" pointer-events="all"/></g></g></svg>
